<svg id="Layer_1" data-name="Layer 1" 
    xmlns="http://www.w3.org/2000/svg" viewBox="0 0 169.8 155.85">
    <defs>
        <style>.cls-1{fill:#929b98;}.cls-2{fill:#8b6040;}.cls-3{fill:#27e4ff;}.cls-4{fill:#57605d;}</style>
    </defs>
    <rect class="cls-1" x="0.1" y="96.9" width="168" height="49"/>
    <polygon class="cls-2" points="167.81 48.43 106.08 48.43 100.75 48.43 67.38 48.43 66.93 48.43 1.74 48.43 14.8 73.71 14.8 79.43 156.85 79.43 156.85 69.6 156.86 69.6 167.81 48.43"/>
    <rect class="cls-2" x="0.58" y="146.17" width="168" height="9"/>
    <rect class="cls-2" x="0.58" y="84.17" width="168" height="13"/>
    <polygon class="cls-3" points="21.9 74.02 25.58 71.83 19.78 69.17 7.58 84.17 20.2 84.17 21.9 74.02"/>
    <polygon class="cls-3" points="91.39 79.76 91.39 79.76 87.13 71.17 73.82 77.03 71.58 84.17 93.58 84.17 91.39 79.76"/>
    <polygon class="cls-3" points="71.32 84.17 73.9 76.27 77.58 74.71 76.68 70.63 56.19 59.16 42.58 79.58 43.58 84.17 71.32 84.17"/>
    <polygon class="cls-3" points="41.48 62.16 21.78 75.79 20.58 84.17 43.18 84.17 42.04 78.83 47.58 70.33 41.48 62.16"/>
    <path class="cls-3" d="M735,526l2.52-7.56-10.31,2.66A12.66,12.66,0,0,1,735,526Z" transform="translate(-574.42 -414.83)"/>
    <path class="cls-3" d="M716.52,549.5A7.45,7.45,0,0,1,718,545h-7v9h7A7.45,7.45,0,0,1,716.52,549.5Z" transform="translate(-574.42 -414.83)"/>
    <path class="cls-3" d="M715,531.52a10.22,10.22,0,0,0,5,8.48V523A10.32,10.32,0,0,0,715,531.52Z" transform="translate(-574.42 -414.83)"/>
    <polygon class="cls-3" points="121.96 84.17 139.58 84.17 134.46 67.8 134.34 67.77 118.75 63.16 112.58 72.2 120.34 76.64 121.96 84.17"/>
    <polygon class="cls-3" points="91.58 79.61 93.91 84.17 122.58 84.17 121.27 78.14 100.34 66.17 91.58 79.61"/>
    <polygon class="cls-3" points="134.58 67.6 140.12 84.17 161.85 84.17 162.58 77.09 146.3 59.16 134.58 67.6"/>
    <path class="cls-3" d="M617,550.09V522.75a21.32,21.32,0,0,0,0,27.34Z" transform="translate(-574.42 -414.83)"/>
    <path class="cls-3" d="M601.49,528.12l3.28-9.35L593.34,522A13.72,13.72,0,0,1,601.49,528.12Z" transform="translate(-574.42 -414.83)"/>
    <path class="cls-3" d="M628.8,552.91,617,540.43v9.68a10.79,10.79,0,0,0,7.8,3.7A9.58,9.58,0,0,0,628.8,552.91Z" transform="translate(-574.42 -414.83)"/>
    <path class="cls-3" d="M602.94,544.77h-8a5.45,5.45,0,0,1-.33,9l8.33,0Z" transform="translate(-574.42 -414.83)"/>
    <path class="cls-3" d="M585.51,550.73l-.13-25.33a19.05,19.05,0,0,0-4.49,12.7,20.91,20.91,0,0,0,1.25,7A17.68,17.68,0,0,0,585.51,550.73Z" transform="translate(-574.42 -414.83)"/>
    <path class="cls-3" d="M680.87,518.8l3.14,9.32c2.08-3.29,4.81-5.42,7.8-6.12Z" transform="translate(-574.42 -414.83)"/>
    <path class="cls-3" d="M684.74,549.18a7.83,7.83,0,0,1,1.56-4.74h-7.42v9.48h7.43A7.82,7.82,0,0,1,684.74,549.18Z" transform="translate(-574.42 -414.83)"/>
    <path class="cls-3" d="M658.89,518.8a10.62,10.62,0,0,0-7.64,3.6v7.67l15.22-7.71A10.54,10.54,0,0,0,658.89,518.8Z" transform="translate(-574.42 -414.83)"/>
    <path class="cls-3" d="M651.25,550.09V522.75a21.22,21.22,0,0,0,0,27.34Z" transform="translate(-574.42 -414.83)"/>
    <path d="M624.6,554.44c7.17,0,13-8.13,13-18.12s-5.84-18.13-13-18.13-13,8.13-13,18.13S617.43,554.44,624.6,554.44Zm-7-32a9.81,9.81,0,0,1,7-3.24c6.62,0,12,7.68,12,17.13,0,7.16-3.1,13.3-7.49,15.86l-11.53-11.95Zm0,19.24,10.6,11a8.69,8.69,0,0,1-3.59.78,9.81,9.81,0,0,1-7-3.24Zm-1,7.37a22.24,22.24,0,0,1,0-25.45Z" transform="translate(-574.42 -414.83)"/>
    <path d="M658.85,554.44c7.18,0,13-8.13,13-18.12s-5.83-18.13-13-18.13-13,8.13-13,18.13S651.68,554.44,658.85,554.44Zm-7-32a9.19,9.19,0,0,1,14-.05l-14,7Zm0,8,14.69-7.31a20.68,20.68,0,0,1,4.33,13.17c0,9.44-5.38,17.12-12,17.12a9.82,9.82,0,0,1-7-3.24Zm-1,18.58a22.24,22.24,0,0,1,0-25.45Z" transform="translate(-574.42 -414.83)"/>
    <path d="M711,554.73H727.8a6.47,6.47,0,0,0,6.69-6.4c0-4.8-3.08-7.39-9.16-7.7h0a10.86,10.86,0,0,1-4.92-1.31l-.22-.12V523.4a11.39,11.39,0,0,1,2.91-1.12h0l.1,0h0l.4-.08a11.3,11.3,0,0,1,2.12-.19,10.74,10.74,0,0,1,8.83,4.29l.05.05a.28.28,0,0,0,.09.1l.08.06.18,0h0a.51.51,0,0,0,.27-.09l0,0a.62.62,0,0,0,.15-.21v0l2.87-7.62v0a.5.5,0,0,0,0-.12v-.13l0-.06,0-.07a.36.36,0,0,0-.07-.1l0,0-.12-.07,0,0h0l-.11,0h-.14L723,521.27h0l-.11,0h0a12.17,12.17,0,0,0-3.43,1.36,10.08,10.08,0,0,0-5.2,8.64,10,10,0,0,0,5.18,8.6,5.84,5.84,0,0,0,.53.3,12,12,0,0,0,5.36,1.42h0c5.49.29,8.17,2.48,8.17,6.7a5.48,5.48,0,0,1-5.69,5.4h-9a6.38,6.38,0,0,1,.12-8.54h0a.44.44,0,0,0,.08-.11l0-.05s0,0,0-.08a.43.43,0,0,0,0-.11h0s0-.05,0-.08,0-.07,0-.1a.41.41,0,0,0-.07-.11l0,0h0l-.11-.08-.05,0-.09,0-.1,0H711a.5.5,0,0,0-.5.5v9.4A.5.5,0,0,0,711,554.73Zm26.12-35.64L734.83,525a11.54,11.54,0,0,0-6.93-3.86Zm-17.9,19.47a8.88,8.88,0,0,1-3.95-7.25,9,9,0,0,1,3.95-7.28Zm-7.72,6.77h6.07a7.53,7.53,0,0,0,0,8.4h-6.07Z" transform="translate(-574.42 -414.83)"/>
    <path d="M679,554.44h16.84a.47.47,0,0,0,.17,0h0a11.14,11.14,0,0,0,4.21-2.77c3.06-3.15,4.83-8,4.86-13.17s-1.7-10-4.73-13.22a11.61,11.61,0,0,0-3.81-2.68l-.07,0a9,9,0,0,0-2.16-.59l-.12,0-13.56-3.71h-.15l-.09,0h-.06l0,0-.08,0-.07.06-.06.08a.79.79,0,0,0,0,.09l0,0s0,0,0,.06a.31.31,0,0,0,0,.1s0,.06,0,.09a.13.13,0,0,1,0,.06l3.45,9.58,0,0a.45.45,0,0,0,.15.19l0,0,0,0a.46.46,0,0,0,.23.06h.19l0,0a.41.41,0,0,0,.11-.07.12.12,0,0,0,.05,0s0,0,.06-.07a11.48,11.48,0,0,1,5.67-5.12v30h-3.21a6.05,6.05,0,0,1-1.58-4.2,5.94,5.94,0,0,1,1.71-4.33h0a1,1,0,0,0,.08-.11l0,0s0,0,0-.08a.36.36,0,0,0,0-.11h0s0,0,0-.08,0-.07,0-.1l-.07-.11,0,0h0a.39.39,0,0,0-.1-.08l-.06,0h-.07l-.12,0H679a.51.51,0,0,0-.5.5v9.4A.5.5,0,0,0,679,554.44Zm12.08-31.34a7.65,7.65,0,0,1,1.91-.26c.33,0,.65,0,1,0l.15,0a7.92,7.92,0,0,1,2,.55h0l.12.06h0a10.55,10.55,0,0,1,3.38,2.4,18.1,18.1,0,0,1,4.45,12.52c0,4.9-1.74,9.56-4.57,12.48a10.12,10.12,0,0,1-3.8,2.51h-4.66Zm-7,4.07-2.78-7.75,9.71,2.66A11.54,11.54,0,0,0,684.12,527.17ZM679.51,545h6.07a7.51,7.51,0,0,0,0,8.4h-6.08Z" transform="translate(-574.42 -414.83)"/>
    <path d="M585.13,551.13h0a10.74,10.74,0,0,0,5.93,3.18,11.15,11.15,0,0,0,1.2.08.54.54,0,0,0,.21.05h0l10.39,0,.15,0a.52.52,0,0,0,.5-.52v-9.36a.5.5,0,0,0-.5-.5h-9.3a.51.51,0,0,0-.5.5.48.48,0,0,0,.36.47h0l.28.11a4.32,4.32,0,0,1,2.72,4,4.26,4.26,0,0,1-3.65,4.26h0a2.17,2.17,0,0,1-.36,0,11,11,0,0,1-1.33-.09,9.64,9.64,0,0,1-5.23-2.76l-.12-24.87a10.45,10.45,0,0,1,3.26-2.24h0l.06,0h0a7.85,7.85,0,0,1,2.09-.56,8.42,8.42,0,0,1,1-.07c3.37,0,6.47,2,8.61,5.56h0l0,0h0a.49.49,0,0,0,.12.13l0,0,.1.06h.07l.1,0h0a.48.48,0,0,0,.23-.07h0l0,0a.45.45,0,0,0,.15-.19l0,0,3.45-9.44v-.06a.29.29,0,0,0,0-.09.41.41,0,0,0,0-.11v-.05l0,0a.31.31,0,0,0-.05-.1l0-.07-.08-.06a.18.18,0,0,0-.07,0l0,0H605l-.09,0h-.15l-13.61,3.67a8.68,8.68,0,0,0-2.19.59l-.12,0h0a11.32,11.32,0,0,0-3.77,2.62h0a18.69,18.69,0,0,0-4.73,13,21.53,21.53,0,0,0,1.05,6.54A16.65,16.65,0,0,0,585.13,551.13Zm12.45-2a5.33,5.33,0,0,0-1.93-4.07h6.87v8.36l-7.16,0A5.25,5.25,0,0,0,597.58,549.11Zm6.48-29.69L601.28,527a11.53,11.53,0,0,0-6.9-5Zm-19.18,7.4.1,22.61a16.48,16.48,0,0,1-2.7-5,20.36,20.36,0,0,1-1-6.22A18.19,18.19,0,0,1,584.88,526.82Z" transform="translate(-574.42 -414.83)"/>
    <path d="M705.56,432H611.09a1,1,0,0,0,0,2h94.47a1,1,0,0,0,0-2Z" transform="translate(-574.42 -414.83)"/>
    <path class="cls-2" d="M719.15,424.93c-16-5.8-37.21-9-59.82-9s-43.86,3.19-59.83,9c-14.84,5.39-23.56,12.64-24.17,20h168C742.7,437.56,734,430.31,719.15,424.93Z" transform="translate(-574.42 -414.83)"/>
    <rect class="cls-1" x="0.58" y="29.17" width="168" height="20"/>
    <rect class="cls-4" x="68.58" y="41.17" width="31" height="15"/>
    <path d="M744.22,444.82c0-16.82-37.29-30-84.89-30s-84.9,13.17-84.9,30c0,.05,0,.1,0,.16v0s0,0,0,0v18.31a.89.89,0,0,0,.15.49h0l14.22,24.64-6.91,9.24h-6.44a1,1,0,0,0-1,1v70.95a1,1,0,0,0,1,1h167.8a1,1,0,0,0,1-1V498.73a1,1,0,0,0-1-1h-6.62l.72-7.14-5.27-5.9,12-20.84s0,0,0,0a.85.85,0,0,0,.08-.24l0-.14s0-.05,0-.08V445h0ZM600.33,425.27c15.74-5.44,36.69-8.44,59-8.44s43.25,3,59,8.44c14.63,5.05,23.23,11.85,23.85,18.77H576.49C577.09,437.13,585.69,430.32,600.33,425.27Zm-6.65,60,4.42,2.21-2.8,1.82-1.3,8.41h-9.63Zm54.19,5.24-2.46,7.2H619l-1-4.18,13-18.63,19.54,10.46.85,3.72ZM661,487.36l3.69,6.86h0l1.9,3.51H647.52l1.94-5.69Zm-45.16,5.77,1,4.6H596l1.12-7.22,18.19-11.76L621,485.8Zm126.37,75.55H576.42v-7h165.8Zm0-9H576.42V512.93h165.8Zm0-60v11.2H576.43v-11.2Zm-48.56-7.2,1.18,5.2h-26l-2.12-3.93,8-11.59Zm-5.33-5.17,5.63-7.84,14.23,4,.1,0L713,497.73H696.9l-1.48-6.52Zm46.92,3.91-.66,6.46H715.08l-5-15.13,10.53-7.71Zm-4.61-8.16-9.73-10.9-12.65,9.24-15.11-4.23-6.59,9.17-12.5-6.8-8.38,12.23-3.77-7-8.67,3.51-1-4.3-21.92-11.72-8.2,11.77-6.39-8-15.71,10.15-7-3.48-3,4-12.93-22.4h65V471a1,1,0,0,0,1,1h31a1,1,0,0,0,1-1v-6.63h66.36ZM644.11,470V456.72h29V470Zm98.11-7.63H675.13v-6.63a1,1,0,0,0-1-1h-31a1,1,0,0,0-1,1v6.63H576.43V446H742.22Z" transform="translate(-574.42 -414.83)"/>
</svg>